<svg width="32" height="32" viewBox="0 0 32 32" fill="none" xmlns="http://www.w3.org/2000/svg">
<path opacity="0.4" d="M15.9993 29.3337C23.3631 29.3337 29.3327 23.3641 29.3327 16.0003C29.3327 8.63653 23.3631 2.66699 15.9993 2.66699C8.63555 2.66699 2.66602 8.63653 2.66602 16.0003C2.66602 23.3641 8.63555 29.3337 15.9993 29.3337Z" fill="#808686"/>
<path d="M17.4138 16.0005L20.4805 12.9338C20.8671 12.5471 20.8671 11.9071 20.4805 11.5205C20.0938 11.1338 19.4538 11.1338 19.0671 11.5205L16.0005 14.5871L12.9338 11.5205C12.5471 11.1338 11.9071 11.1338 11.5205 11.5205C11.1338 11.9071 11.1338 12.5471 11.5205 12.9338L14.5871 16.0005L11.5205 19.0671C11.1338 19.4538 11.1338 20.0938 11.5205 20.4805C11.7205 20.6805 11.9738 20.7738 12.2271 20.7738C12.4805 20.7738 12.7338 20.6805 12.9338 20.4805L16.0005 17.4138L19.0671 20.4805C19.2671 20.6805 19.5205 20.7738 19.7738 20.7738C20.0271 20.7738 20.2805 20.6805 20.4805 20.4805C20.8671 20.0938 20.8671 19.4538 20.4805 19.0671L17.4138 16.0005Z" fill="#808686"/>
</svg>
